<svg width="900" height="540" viewBox="0 0 900 540" fill="none" xmlns="http://www.w3.org/2000/svg">
  <defs>
    <linearGradient id="bg" x1="0" y1="0" x2="900" y2="540" gradientUnits="userSpaceOnUse">
      <stop stop-color="#08103E"/>
      <stop offset="0.58" stop-color="#0D1A63"/>
      <stop offset="1" stop-color="#030611"/>
    </linearGradient>
    <linearGradient id="accent" x1="122" y1="122" x2="772" y2="412" gradientUnits="userSpaceOnUse">
      <stop stop-color="#22D9FF"/>
      <stop offset="0.55" stop-color="#48A6FF"/>
      <stop offset="1" stop-color="#7758FF"/>
    </linearGradient>
  </defs>
  <rect width="900" height="540" rx="34" fill="url(#bg)"/>
  <rect x="112" y="82" width="676" height="376" rx="28" fill="white" fill-opacity="0.08" stroke="white" stroke-opacity="0.14"/>
  <rect x="156" y="126" width="414" height="244" rx="20" fill="#061033" stroke="#22D9FF" stroke-opacity="0.34"/>
  <rect x="608" y="126" width="136" height="244" rx="20" fill="white" fill-opacity="0.12"/>
  <rect x="188" y="162" width="210" height="18" rx="9" fill="white" fill-opacity="0.76"/>
  <rect x="188" y="208" width="312" height="12" rx="6" fill="white" fill-opacity="0.25"/>
  <rect x="188" y="238" width="256" height="12" rx="6" fill="white" fill-opacity="0.25"/>
  <rect x="188" y="296" width="132" height="42" rx="21" fill="url(#accent)"/>
  <circle cx="676" cy="196" r="34" fill="url(#accent)" fill-opacity="0.92"/>
  <rect x="644" y="270" width="64" height="76" rx="12" fill="white" fill-opacity="0.2"/>
  <path d="M644 386H708" stroke="#22D9FF" stroke-width="8" stroke-linecap="round"/>
  <text x="156" y="438" fill="#EAF4FF" font-family="Aptos, Segoe UI, Arial" font-size="30" font-weight="700">AI Website &amp; Digital Platform</text>
</svg>
