<svg width="900" height="540" viewBox="0 0 900 540" fill="none" xmlns="http://www.w3.org/2000/svg">
  <defs>
    <linearGradient id="bg" x1="0" y1="0" x2="900" y2="540" gradientUnits="userSpaceOnUse">
      <stop stop-color="#0D1A63"/>
      <stop offset="1" stop-color="#030611"/>
    </linearGradient>
    <linearGradient id="accent" x1="150" y1="116" x2="735" y2="420" gradientUnits="userSpaceOnUse">
      <stop stop-color="#22D9FF"/>
      <stop offset="0.5" stop-color="#48A6FF"/>
      <stop offset="1" stop-color="#7758FF"/>
    </linearGradient>
  </defs>
  <rect width="900" height="540" rx="34" fill="url(#bg)"/>
  <rect x="104" y="82" width="692" height="376" rx="28" fill="white" fill-opacity="0.08" stroke="white" stroke-opacity="0.14"/>
  <rect x="150" y="128" width="190" height="88" rx="18" fill="#061033" stroke="#22D9FF" stroke-opacity="0.35"/>
  <rect x="150" y="258" width="190" height="88" rx="18" fill="#061033" stroke="#48A6FF" stroke-opacity="0.35"/>
  <rect x="560" y="128" width="190" height="88" rx="18" fill="#061033" stroke="#7758FF" stroke-opacity="0.35"/>
  <rect x="560" y="258" width="190" height="88" rx="18" fill="#061033" stroke="#22D9FF" stroke-opacity="0.35"/>
  <circle cx="450" cy="238" r="74" fill="url(#accent)" fill-opacity="0.16" stroke="url(#accent)" stroke-width="6"/>
  <path d="M340 172H396M504 172H560M340 302H390M510 302H560M450 164V312" stroke="url(#accent)" stroke-width="7" stroke-linecap="round"/>
  <path d="M188 172H302M188 302H286M598 172H716M598 302H704" stroke="white" stroke-opacity="0.56" stroke-width="10" stroke-linecap="round"/>
  <text x="150" y="438" fill="#EAF4FF" font-family="Aptos, Segoe UI, Arial" font-size="30" font-weight="700">Data Pipeline &amp; Reporting System</text>
</svg>
