<svg width="900" height="540" viewBox="0 0 900 540" fill="none" xmlns="http://www.w3.org/2000/svg">
  <defs>
    <linearGradient id="bg" x1="0" y1="0" x2="900" y2="540" gradientUnits="userSpaceOnUse">
      <stop stop-color="#08103E"/>
      <stop offset="1" stop-color="#030611"/>
    </linearGradient>
    <linearGradient id="accent" x1="148" y1="130" x2="760" y2="400" gradientUnits="userSpaceOnUse">
      <stop stop-color="#22D9FF"/>
      <stop offset="1" stop-color="#7758FF"/>
    </linearGradient>
  </defs>
  <rect width="900" height="540" rx="34" fill="url(#bg)"/>
  <rect x="96" y="74" width="708" height="392" rx="28" fill="white" fill-opacity="0.08" stroke="white" stroke-opacity="0.14"/>
  <rect x="134" y="116" width="170" height="116" rx="18" fill="url(#accent)"/>
  <rect x="332" y="116" width="170" height="116" rx="18" fill="white" fill-opacity="0.12"/>
  <rect x="530" y="116" width="236" height="116" rx="18" fill="white" fill-opacity="0.12"/>
  <path d="M156 360L232 310L308 330L386 248L470 282L548 220L744 278" stroke="url(#accent)" stroke-width="10" stroke-linecap="round" stroke-linejoin="round"/>
  <path d="M156 400H744" stroke="white" stroke-opacity="0.18" stroke-width="2"/>
  <circle cx="386" cy="248" r="14" fill="#22D9FF"/>
  <circle cx="548" cy="220" r="14" fill="#7758FF"/>
  <path d="M166 174H264M364 166H454M564 166H704M364 196H430M564 196H728" stroke="white" stroke-opacity="0.68" stroke-width="10" stroke-linecap="round"/>
  <text x="134" y="444" fill="#EAF4FF" font-family="Aptos, Segoe UI, Arial" font-size="30" font-weight="700">ML Model Evaluation Dashboard</text>
</svg>
