<svg width="900" height="540" viewBox="0 0 900 540" fill="none" xmlns="http://www.w3.org/2000/svg">
  <defs>
    <linearGradient id="bg" x1="0" y1="0" x2="900" y2="540" gradientUnits="userSpaceOnUse">
      <stop stop-color="#08103E"/>
      <stop offset="0.55" stop-color="#0D1A63"/>
      <stop offset="1" stop-color="#030611"/>
    </linearGradient>
    <linearGradient id="accent" x1="177" y1="114" x2="738" y2="421" gradientUnits="userSpaceOnUse">
      <stop stop-color="#22D9FF"/>
      <stop offset="1" stop-color="#7758FF"/>
    </linearGradient>
  </defs>
  <rect width="900" height="540" rx="34" fill="url(#bg)"/>
  <circle cx="710" cy="120" r="170" fill="#22D9FF" fill-opacity="0.08"/>
  <rect x="92" y="76" width="716" height="386" rx="28" fill="white" fill-opacity="0.08" stroke="white" stroke-opacity="0.14"/>
  <rect x="132" y="116" width="240" height="300" rx="18" fill="#F7FAFF"/>
  <rect x="162" y="156" width="150" height="12" rx="6" fill="#0D1A63" fill-opacity="0.85"/>
  <rect x="162" y="194" width="172" height="9" rx="4.5" fill="#0D1A63" fill-opacity="0.24"/>
  <rect x="162" y="224" width="148" height="9" rx="4.5" fill="#0D1A63" fill-opacity="0.24"/>
  <rect x="162" y="254" width="178" height="9" rx="4.5" fill="#0D1A63" fill-opacity="0.24"/>
  <rect x="162" y="308" width="80" height="54" rx="8" fill="url(#accent)"/>
  <rect x="266" y="308" width="66" height="54" rx="8" fill="#0D1A63" fill-opacity="0.18"/>
  <rect x="420" y="124" width="330" height="64" rx="14" fill="white" fill-opacity="0.12"/>
  <rect x="420" y="218" width="330" height="64" rx="14" fill="white" fill-opacity="0.12"/>
  <rect x="420" y="312" width="330" height="64" rx="14" fill="white" fill-opacity="0.12"/>
  <circle cx="456" cy="156" r="12" fill="#22D9FF"/>
  <circle cx="456" cy="250" r="12" fill="#48A6FF"/>
  <circle cx="456" cy="344" r="12" fill="#7758FF"/>
  <path d="M470 156H568M470 250H646M470 344H612" stroke="white" stroke-opacity="0.55" stroke-width="10" stroke-linecap="round"/>
  <text x="132" y="446" fill="#EAF4FF" font-family="Aptos, Segoe UI, Arial" font-size="30" font-weight="700">Research Automation Toolkit</text>
</svg>
