<svg width="900" height="540" viewBox="0 0 900 540" fill="none" xmlns="http://www.w3.org/2000/svg">
  <defs>
    <linearGradient id="bg" x1="0" y1="0" x2="900" y2="540" gradientUnits="userSpaceOnUse">
      <stop stop-color="#0D1A63"/>
      <stop offset="1" stop-color="#030611"/>
    </linearGradient>
    <linearGradient id="accent" x1="142" y1="102" x2="746" y2="434" gradientUnits="userSpaceOnUse">
      <stop stop-color="#22D9FF"/>
      <stop offset="0.52" stop-color="#48A6FF"/>
      <stop offset="1" stop-color="#7758FF"/>
    </linearGradient>
    <filter id="glow" x="-20%" y="-20%" width="140%" height="140%">
      <feGaussianBlur stdDeviation="10" result="blur"/>
      <feBlend in="SourceGraphic" in2="blur"/>
    </filter>
  </defs>
  <rect width="900" height="540" rx="34" fill="url(#bg)"/>
  <path d="M0 120H900M0 240H900M0 360H900M180 0V540M360 0V540M540 0V540M720 0V540" stroke="white" stroke-opacity="0.06"/>
  <rect x="86" y="78" width="728" height="386" rx="28" fill="white" fill-opacity="0.08" stroke="white" stroke-opacity="0.14"/>
  <rect x="125" y="118" width="390" height="292" rx="22" fill="#061033" stroke="#22D9FF" stroke-opacity="0.35"/>
  <rect x="155" y="148" width="330" height="220" rx="16" fill="#071225"/>
  <path d="M194 198L273 164L388 218L460 184" stroke="url(#accent)" stroke-width="8" stroke-linecap="round"/>
  <rect x="210" y="234" width="165" height="98" rx="12" stroke="#22D9FF" stroke-width="5" stroke-dasharray="18 12"/>
  <circle cx="292" cy="283" r="38" fill="#22D9FF" fill-opacity="0.14" stroke="#22D9FF" stroke-width="4"/>
  <path d="M590 146H746M590 198H714M590 250H752M590 302H688" stroke="white" stroke-opacity="0.42" stroke-width="12" stroke-linecap="round"/>
  <rect x="584" y="348" width="178" height="46" rx="23" fill="url(#accent)" filter="url(#glow)"/>
  <text x="125" y="446" fill="#EAF4FF" font-family="Aptos, Segoe UI, Arial" font-size="30" font-weight="700">Computer Vision Inspection</text>
</svg>
